Coordinates
version=1
nRows=12
nColumns=34
inDegrees=yes

Units are S.I. units (second, meters, Newtons, ...)
If the header above contains a line with 'inDegrees', this indicates whether rotational values are in degrees (yes) or radians (no).

endheader
time	pelvis_tilt	pelvis_list	pelvis_rotation	pelvis_tx	pelvis_ty	pelvis_tz	hip_flexion_r	hip_adduction_r	hip_rotation_r	knee_angle_r	ankle_angle_r	subtalar_angle_r	mtp_angle_r	hip_flexion_l	hip_adduction_l	hip_rotation_l	knee_angle_l	ankle_angle_l	subtalar_angle_l	mtp_angle_l	lumbar_extension	lumbar_bending	lumbar_rotation	arm_flex_r	arm_add_r	arm_rot_r	elbow_flex_r	pro_sup_r	arm_flex_l	arm_add_l	arm_rot_l	elbow_flex_l	pro_sup_l
     15.00000000	      2.71016789	     -1.60288944	    157.21526874	      0.44346884	      0.87814664	     -0.07826484	     24.30627209	     -1.47367080	     -9.24027115	     91.76089107	      0.00000000	      0.00000000	      0.00000000	     26.06726216	     -7.55389103	      1.38929302	     95.85836869	      0.00000000	      0.00000000	      0.00000000	     -0.61100144	      0.76143332	      0.10937766	      0.00000000	      0.00000000	      0.00000000	      0.00000000	      0.00000000	      0.00000000	      0.00000000	      0.00000000	      0.00000000	      0.00000000
     15.01666670	      2.67778791	     -1.61642074	    157.17687209	      0.44427362	      0.87782166	     -0.07846951	     24.34527683	     -1.43555551	     -9.18832957	     91.73333741	      0.00000000	      0.00000000	      0.00000000	     26.04869633	     -7.60131978	      1.37329715	     96.00506749	      0.00000000	      0.00000000	      0.00000000	     -0.78890739	      0.60336539	      0.03058247	      0.00000000	      0.00000000	      0.00000000	      0.00000000	      0.00000000	      0.00000000	      0.00000000	      0.00000000	      0.00000000	      0.00000000
     15.03333330	      2.68872673	     -1.63939220	    157.12307804	      0.44471792	      0.87734747	     -0.07872014	     24.36545433	     -1.45947071	     -9.19118224	     91.65804438	      0.00000000	      0.00000000	      0.00000000	     26.00944072	     -7.60873847	      1.40027922	     96.08417944	      0.00000000	      0.00000000	      0.00000000	     -0.80311920	      0.58129997	      0.01689906	      0.00000000	      0.00000000	      0.00000000	      0.00000000	      0.00000000	      0.00000000	      0.00000000	      0.00000000	      0.00000000	      0.00000000
     15.05000000	      2.69321561	     -1.64402302	    157.08790016	      0.44492721	      0.87703961	     -0.07895423	     24.34475675	     -1.44584878	     -9.17901072	     91.59559668	      0.00000000	      0.00000000	      0.00000000	     26.01876664	     -7.62886950	      1.42529681	     96.22870006	      0.00000000	      0.00000000	      0.00000000	     -0.82023908	      0.51403914	     -0.01738405	      0.00000000	      0.00000000	      0.00000000	      0.00000000	      0.00000000	      0.00000000	      0.00000000	      0.00000000	      0.00000000	      0.00000000
     15.06666670	      2.70611796	     -1.64479749	    157.07550397	      0.44498766	      0.87675756	     -0.07929156	     24.35735065	     -1.44185657	     -9.18283738	     91.61208600	      0.00000000	      0.00000000	      0.00000000	     25.99406613	     -7.66810926	      1.47211759	     96.25694232	      0.00000000	      0.00000000	      0.00000000	     -0.81771167	      0.49094583	     -0.03647785	      0.00000000	      0.00000000	      0.00000000	      0.00000000	      0.00000000	      0.00000000	      0.00000000	      0.00000000	      0.00000000	      0.00000000
     15.08333330	      2.72771463	     -1.65096507	    157.06411178	      0.44496494	      0.87660386	     -0.07949887	     24.34623055	     -1.43070193	     -9.18981021	     91.62410853	      0.00000000	      0.00000000	      0.00000000	     25.98704697	     -7.68030556	      1.49051855	     96.25477124	      0.00000000	      0.00000000	      0.00000000	     -0.81199235	      0.48341690	     -0.04428802	      0.00000000	      0.00000000	      0.00000000	      0.00000000	      0.00000000	      0.00000000	      0.00000000	      0.00000000	      0.00000000	      0.00000000
     15.10000000	      2.97290106	     -1.51895119	    157.11783919	      0.44470115	      0.87643744	     -0.07984854	     24.44834958	     -1.16496048	     -9.34480405	     91.50509019	      0.00000000	      0.00000000	      0.00000000	     26.16321361	     -7.94106782	      1.69918163	     96.23031620	      0.00000000	      0.00000000	      0.00000000	     -0.43514951	      0.70469280	     -0.50867152	      0.00000000	      0.00000000	      0.00000000	      0.00000000	      0.00000000	      0.00000000	      0.00000000	      0.00000000	      0.00000000	      0.00000000
     15.11666670	      2.99342761	     -1.53348406	    157.10879111	      0.44453869	      0.87657085	     -0.08004408	     24.43141893	     -1.15251100	     -9.34578902	     91.51542310	      0.00000000	      0.00000000	      0.00000000	     26.16199407	     -7.94679208	      1.71182128	     96.20488450	      0.00000000	      0.00000000	      0.00000000	     -0.42620221	      0.69871630	     -0.51289546	      0.00000000	      0.00000000	      0.00000000	      0.00000000	      0.00000000	      0.00000000	      0.00000000	      0.00000000	      0.00000000	      0.00000000
     15.13333330	      3.03052972	     -1.53021396	    157.11213459	      0.44445033	      0.87676782	     -0.08043255	     24.43152612	     -1.06801819	     -9.32261384	     91.49782839	      0.00000000	      0.00000000	      0.00000000	     26.12066523	     -7.97252719	      1.76089965	     96.01020532	      0.00000000	      0.00000000	      0.00000000	     -0.30465496	      0.65652556	     -0.54552598	      0.00000000	      0.00000000	      0.00000000	      0.00000000	      0.00000000	      0.00000000	      0.00000000	      0.00000000	      0.00000000	      0.00000000
     15.15000000	      3.03339541	     -1.53263165	    157.11125907	      0.44442464	      0.87683542	     -0.08051026	     24.43000797	     -1.06676343	     -9.32223577	     91.49832740	      0.00000000	      0.00000000	      0.00000000	     26.11970957	     -7.97299735	      1.76144484	     96.00844829	      0.00000000	      0.00000000	      0.00000000	     -0.30277263	      0.65656832	     -0.54623975	      0.00000000	      0.00000000	      0.00000000	      0.00000000	      0.00000000	      0.00000000	      0.00000000	      0.00000000	      0.00000000	      0.00000000
     15.16666670	      3.31504203	     -1.70939860	    156.93641680	      0.44403011	      0.87648666	     -0.08126864	     24.79713224	     -0.94741659	     -9.06673443	     91.52279010	      0.00000000	      0.00000000	      0.00000000	     26.29695441	     -8.04285760	      1.57455384	     95.80474018	      0.00000000	      0.00000000	      0.00000000	      0.33510409	      0.61290214	     -0.92571732	      0.00000000	      0.00000000	      0.00000000	      0.00000000	      0.00000000	      0.00000000	      0.00000000	      0.00000000	      0.00000000	      0.00000000
     15.18333330	      3.31424288	     -1.70963468	    156.93531782	      0.44383521	      0.87648932	     -0.08140103	     24.79674593	     -0.94793068	     -9.06582564	     91.52373475	      0.00000000	      0.00000000	      0.00000000	     26.29840774	     -8.04318777	      1.57605852	     95.80443499	      0.00000000	      0.00000000	      0.00000000	      0.33532162	      0.61298532	     -0.92590553	      0.00000000	      0.00000000	      0.00000000	      0.00000000	      0.00000000	      0.00000000	      0.00000000	      0.00000000	      0.00000000	      0.00000000
